<svg width="44" height="44" viewBox="0 0 44 44" fill="none" xmlns="http://www.w3.org/2000/svg">
<path d="M37.799 5.74369L16.4457 0.022078C16.2224 -0.0378107 15.9845 0.026152 15.8211 0.189522L1.57127 14.4394L0.189351 15.8213C0.0259807 15.9847 -0.0375746 16.2226 0.0219066 16.4458L5.74352 37.7992C5.8034 38.0225 5.97737 38.1964 6.20063 38.2563L27.554 43.9779C27.7773 44.0378 28.0152 43.9739 28.1785 43.8105L29.5605 42.4286L43.8103 28.1787C43.9737 28.0153 44.0372 27.7774 43.9777 27.5542L38.2561 6.2008C38.1963 5.97754 38.0223 5.80358 37.799 5.74369ZM24.7543 33.926L21.7485 22.7081C21.6886 22.4848 21.5146 22.3109 21.2914 22.251L10.0734 19.2451C9.59269 19.1164 9.43176 18.5155 9.78376 18.1639L16.3499 11.5977C16.5133 11.4343 16.7512 11.3708 16.9745 11.4303L28.9131 14.6292C29.1364 14.6891 29.3103 14.8631 29.3702 15.0863L32.5692 27.0249C32.6291 27.2482 32.5651 27.4861 32.4017 27.6495L25.8356 34.2157C25.4836 34.5677 24.883 34.4063 24.7543 33.926Z" fill="url(#paint0_linear_3194_56112)"/>
<defs>
<linearGradient id="paint0_linear_3194_56112" x1="4.12497" y1="44" x2="47.4375" y2="-2.06216" gradientUnits="userSpaceOnUse">
<stop stop-color="#1578E4"/>
<stop offset="0.970243" stop-color="#C2BBFF"/>
</linearGradient>
</defs>
</svg>
