<?xml version="1.0" encoding="UTF-8"?><svg id="Layer_1" xmlns="http://www.w3.org/2000/svg" viewBox="0 0 308 307"><defs><style>.cls-1{fill:#022859;}</style></defs><path class="cls-1" d="m256.59,47.43L117.45,10.14c-1.45-.39-3,.03-4.07,1.09h0S20.52,104.09,20.52,104.09l-9.01,9.01c-1.06,1.06-1.48,2.61-1.09,4.07l37.28,139.15c.39,1.45,1.52,2.59,2.98,2.98l139.15,37.28c1.45.39,3-.03,4.07-1.09l9.01-9.01,92.86-92.86h0c1.06-1.06,1.48-2.61,1.09-4.07l-37.28-139.15c-.39-1.45-1.52-2.59-2.98-2.98Zm-85,183.65l-19.59-73.1c-.39-1.45-1.52-2.59-2.98-2.98l-73.1-19.59c-3.13-.84-4.18-4.75-1.89-7.05l42.79-42.79c1.06-1.06,2.61-1.48,4.07-1.09l77.8,20.85c1.45.39,2.59,1.52,2.98,2.98l20.85,77.8c.39,1.45-.03,3-1.09,4.07l-42.79,42.79c-2.29,2.29-6.21,1.24-7.05-1.89Z"/></svg>